<svg height="830" width="720" xmlns="http://www.w3.org/2000/svg">
<rect height="830" fill="#555" width="720"></rect>
<text fill="#7f7" font-family="Courier New" font-size="12" xml:space="preserve">
<tspan x="10" y="26">2 megabytes</tspan>
<tspan x="10" y="42">└─┬ matchdep@1.0.1 </tspan>
<tspan x="10" y="58">  ├─┬ findup-sync@0.3.0 </tspan>
<tspan x="10" y="74">  │ └─┬ glob@5.0.15 </tspan>
<tspan x="10" y="90">  │   ├─┬ inflight@1.0.6 </tspan>
<tspan x="10" y="106">  │   │ └── wrappy@1.0.2 </tspan>
<tspan x="10" y="122">  │   ├── inherits@2.0.3 </tspan>
<tspan x="10" y="138">  │   ├─┬ minimatch@3.0.3 </tspan>
<tspan x="10" y="154">  │   │ └─┬ brace-expansion@1.1.6 </tspan>
<tspan x="10" y="170">  │   │   ├── balanced-match@0.4.2 </tspan>
<tspan x="10" y="186">  │   │   └── concat-map@0.0.1 </tspan>
<tspan x="10" y="202">  │   ├── once@1.4.0 </tspan>
<tspan x="10" y="218">  │   └── path-is-absolute@1.0.1 </tspan>
<tspan x="10" y="234">  ├─┬ micromatch@2.3.11 </tspan>
<tspan x="10" y="250">  │ ├─┬ arr-diff@2.0.0 </tspan>
<tspan x="10" y="266">  │ │ └── arr-flatten@1.0.1 </tspan>
<tspan x="10" y="282">  │ ├── array-unique@0.2.1 </tspan>
<tspan x="10" y="298">  │ ├─┬ braces@1.8.5 </tspan>
<tspan x="10" y="314">  │ │ ├─┬ expand-range@1.8.2 </tspan>
<tspan x="10" y="330">  │ │ │ └─┬ fill-range@2.2.3 </tspan>
<tspan x="10" y="346">  │ │ │   ├── is-number@2.1.0 </tspan>
<tspan x="10" y="362">  │ │ │   ├─┬ isobject@2.1.0 </tspan>
<tspan x="10" y="378">  │ │ │   │ └── isarray@1.0.0 </tspan>
<tspan x="10" y="394">  │ │ │   ├── randomatic@1.1.6 </tspan>
<tspan x="10" y="410">  │ │ │   └── repeat-string@1.6.1 </tspan>
<tspan x="10" y="426">  │ │ ├── preserve@0.2.0 </tspan>
<tspan x="10" y="442">  │ │ └── repeat-element@1.1.2 </tspan>
<tspan x="10" y="458">  │ ├─┬ expand-brackets@0.1.5 </tspan>
<tspan x="10" y="474">  │ │ └── is-posix-bracket@0.1.1 </tspan>
<tspan x="10" y="490">  │ ├── extglob@0.3.2 </tspan>
<tspan x="10" y="506">  │ ├── filename-regex@2.0.0 </tspan>
<tspan x="10" y="522">  │ ├── is-extglob@1.0.0 </tspan>
<tspan x="10" y="538">  │ ├── is-glob@2.0.1 </tspan>
<tspan x="10" y="554">  │ ├─┬ kind-of@3.1.0 </tspan>
<tspan x="10" y="570">  │ │ └── is-buffer@1.1.5 </tspan>
<tspan x="10" y="586">  │ ├─┬ normalize-path@2.1.1 </tspan>
<tspan x="10" y="602">  │ │ └── remove-trailing-separator@1.0.1 </tspan>
<tspan x="10" y="618">  │ ├─┬ object.omit@2.0.1 </tspan>
<tspan x="10" y="634">  │ │ ├─┬ for-own@0.1.5 </tspan>
<tspan x="10" y="650">  │ │ │ └── for-in@1.0.2 </tspan>
<tspan x="10" y="666">  │ │ └── is-extendable@0.1.1 </tspan>
<tspan x="10" y="682">  │ ├─┬ parse-glob@3.0.4 </tspan>
<tspan x="10" y="698">  │ │ ├─┬ glob-base@0.3.0 </tspan>
<tspan x="10" y="714">  │ │ │ └── glob-parent@2.0.0 </tspan>
<tspan x="10" y="730">  │ │ └── is-dotfile@1.0.2 </tspan>
<tspan x="10" y="746">  │ └─┬ regex-cache@0.4.3 </tspan>
<tspan x="10" y="762">  │   ├── is-equal-shallow@0.1.3 </tspan>
<tspan x="10" y="778">  │   └── is-primitive@2.0.0 </tspan>
<tspan x="10" y="794">  ├── resolve@1.1.7 </tspan>
<tspan x="10" y="810">  └── stack-trace@0.0.9</tspan>
</text>
</svg>
